/* XPM */
static char *_342f082d15f44ceffa3a4ea98e6796cfj3XUtm2uhu7SKPm[] = {
/* columns rows colors chars-per-pixel */
"80 80 200 2 ",
"   c black",
".  c #010101",
"X  c gray1",
"o  c gray2",
"O  c #060606",
"+  c #070707",
"@  c gray3",
"#  c #0B0B0B",
"$  c #0C0C0C",
"%  c gray5",
"&  c #0E0E0E",
"*  c gray6",
"=  c #101010",
"-  c gray7",
";  c gray8",
":  c #191919",
">  c gray10",
",  c #1B1B1B",
"<  c gray11",
"1  c #1D1D1D",
"2  c #1E1E1E",
"3  c gray12",
"4  c #202020",
"5  c gray13",
"6  c #222222",
"7  c #232323",
"8  c #252525",
"9  c gray15",
"0  c #272727",
"q  c #282828",
"w  c #2A2A2A",
"e  c gray17",
"r  c #2C2C2C",
"t  c #2D2D2D",
"y  c #2F2F2F",
"u  c gray19",
"i  c #323232",
"p  c #353535",
"a  c gray21",
"s  c #373737",
"d  c #393939",
"f  c #3A3A3A",
"g  c gray23",
"h  c #3C3C3C",
"j  c #3E3E3E",
"k  c #3F3F3F",
"l  c gray25",
"z  c #414141",
"x  c #434343",
"c  c #464646",
"v  c gray28",
"b  c #4B4B4B",
"n  c #4C4C4C",
"m  c #4E4E4E",
"M  c #515151",
"N  c #5A5A5A",
"B  c #5B5B5B",
"V  c gray36",
"C  c #5F5F5F",
"Z  c #626262",
"A  c gray39",
"S  c #646464",
"D  c #656565",
"F  c #676767",
"G  c #6A6A6A",
"H  c gray43",
"J  c gray44",
"K  c #717171",
"L  c #727272",
"P  c gray46",
"I  c #767676",
"U  c #797979",
"Y  c gray48",
"T  c #7B7B7B",
"R  c #7C7C7C",
"E  c gray49",
"W  c #7E7E7E",
"Q  c gray50",
"!  c #808080",
"~  c #818181",
"^  c gray51",
"/  c #838383",
"(  c #848484",
")  c gray52",
"_  c #868686",
"`  c #888888",
"'  c gray54",
"]  c #8B8B8B",
"[  c #8D8D8D",
"{  c #8E8E8E",
"}  c gray56",
"|  c #909090",
" . c gray57",
".. c #929292",
"X. c #939393",
"o. c gray58",
"O. c #959595",
"+. c gray59",
"@. c #989898",
"#. c #9A9A9A",
"$. c #9B9B9B",
"%. c gray61",
"&. c #9D9D9D",
"*. c gray62",
"=. c #9F9F9F",
"-. c #A0A0A0",
";. c gray63",
":. c #A2A2A2",
">. c gray64",
",. c #A4A4A4",
"<. c #A5A5A5",
"1. c gray65",
"2. c #A7A7A7",
"3. c gray66",
"4. c #A9A9A9",
"5. c #AAAAAA",
"6. c gray67",
"7. c #ACACAC",
"8. c gray68",
"9. c #AEAEAE",
"0. c #AFAFAF",
"q. c gray69",
"w. c #B1B1B1",
"e. c #B2B2B2",
"r. c gray70",
"t. c #B4B4B4",
"y. c #B6B6B6",
"u. c #B7B7B7",
"i. c gray72",
"p. c #B9B9B9",
"a. c gray73",
"s. c #BBBBBB",
"d. c #BCBCBC",
"f. c gray74",
"g. c gray",
"h. c gray75",
"j. c #C0C0C0",
"k. c #C1C1C1",
"l. c gray76",
"z. c #C3C3C3",
"x. c gray77",
"c. c #C5C5C5",
"v. c #C6C6C6",
"b. c gray78",
"n. c #C8C8C8",
"m. c gray79",
"M. c #CACACA",
"N. c #CBCBCB",
"B. c gray80",
"V. c #CDCDCD",
"C. c #CECECE",
"Z. c gray81",
"A. c #D0D0D0",
"S. c gray82",
"D. c #D2D2D2",
"F. c LightGray",
"G. c gray83",
"H. c #D5D5D5",
"J. c gray84",
"K. c #D7D7D7",
"L. c #D8D8D8",
"P. c gray85",
"I. c #DADADA",
"U. c gray86",
"Y. c gainsboro",
"T. c #DDDDDD",
"R. c gray87",
"E. c #DFDFDF",
"W. c gray88",
"Q. c #E1E1E1",
"!. c #E2E2E2",
"~. c gray89",
"^. c #E4E4E4",
"/. c gray90",
"(. c #E6E6E6",
"). c #E7E7E7",
"_. c gray91",
"`. c #E9E9E9",
"'. c #EAEAEA",
"]. c gray92",
"[. c #ECECEC",
"{. c gray93",
"}. c #EEEEEE",
"|. c #EFEFEF",
" X c gray94",
".X c #F1F1F1",
"XX c gray95",
"oX c #F3F3F3",
"OX c #F4F4F4",
"+X c gray96",
"@X c #F6F6F6",
"#X c gray97",
"$X c #F8F8F8",
"%X c #F9F9F9",
"&X c gray98",
"*X c #FBFBFB",
"=X c gray99",
"-X c #FDFDFD",
";X c #FEFEFE",
":X c white",
/* pixels */
":X:X:X|.#X:X:X:X:X:X:X:X:X:X:X:X:X:X:X:X:XG.:X:X:X:X:X:X:X:X:X:X:X:X:X:X:X:X:XR.:X:X:X:X:X:X:X:X:X:X:X:X:X:X:X:X:XG.:X:X:X:X:X:X:X:X:X:X:X:X:X:X:X&X(.:X:X:X:X:X",
"#X#X&X`.XX&X&X&X&X&X:X:X:X:X:X:X:X:X:X:X:XD.:X:X:X:X:X:X:X:X:X:X:X:X:X:X:X:X:XU.:X:X:X:X:X:X:X:X:X:X:X:X:X:X:X:X:X!.:X:X:X:X:X:X:X:X:X:X:X:X:X:X:XXXM.:X:X:X:X:X",
"(.(.`.R.!.(.(.(.(.(.!.!.!.M.!.!.!.!.!.!.!.M.!.(.!.R.R.R.!.!.R.V.!.!.!.!.(.(.(.V.(.(.!.R.U.U.R.R.U.M.!.U.U.U.U.U.U.j.U.U.U.U.U.U.R.R.D.M.V.V.D.D.D.v.,.!.!.!.(.`.",
":X:X:X:X:X:X:X:X:X:X:X:X:XG.:X:X:X:X:X:X:X:X:X:X:X:X:X:X:X:X:XG.:X:X:X:X:X:X:X:X:X:X:X:X:X:X:X:X:XU.:X:X:X:X:X:X:X:X:X:X:X:X:X:X:X:X!.:X:X:X:X:X:X:X:X:X:X:X:X:X",
":X:X:X:X:X:X:X:X:X:X:X:X:XD.:X:X:X:X:X:X:X:X:X:X:X:X:X:X:X:X:XU.:X:X:X:X:X:X:X:X:X:X:X:X:X:X:X:X&XU.:X:X:X:X:X:X:X:X:X:X:X:X:X:X:X:X(.:X:X:X:X:X:X:X:X:X:X:X:X:X",
":X:X:X:X:X:X:X:X:X:X:X:X:XD.:X:X:X:X:X:X:X:X:X:X:X:X:X:X:X:X:XG.:X:X:X:X:X:X:X:X:X:X:X:X:X:X:X:XXX`.:X:X:X:X:X:X:X:X:X:X:X:X:X:X:X:X`.:X:X:X:X:X:X:X:X:X:X:X:X:X",
":X:X:X:X:X:X:X:X:X:X:X:X:XU.:X:X:X:X:X:X:X:X:X:X:X:X:X:X:X:X:XG.:X:X:X:X:X:X:X:X:X:X:X:X:X:X:X:X|.&X:X:X:X:X:X:X:X:X:X:X:X:X:X:X:X:X|.:X:X:X:X:X:X:X:X:X:X:X:X:X",
":X:X:X:X:X:X:X:X:X:X:X:X:X(.:X:X:X:X:X:X:X:X:X:X:X:X:X:X:X:X:XR.:X:X:X:X:X:X:X:X:X:X:X:X:X:X:X:X|.:X:X:X:X:X:X:X:X:X:X:X:X:X:X:X:X:X|.:X:X:X:X:X:X:X:X:X:X:X:X:X",
"R.U.R.G.V.`.(.!.R.R.U.(.`.G.(.(.(.(.(.(.(.(.D.(.(.(.(.(.(.!.U.M.R.R.R.U.U.U.U.M.U.D.V.V.D.G.R.(.y.V.G.U.R.U.G.G.G.D.U.R.R.R.R.R.!.!.v.`.(.!.!.(.(.!.!.!.!.(.(.(.",
":X:X:XXX#X:X:X:X:X:X:X:X:X:X:X:X:X:X:X:X:X:X(.:X:X:X:X:X:X:X:X:X:X:X:X:X:X:X:X!.:X:X:X:X:X:X:X:X:X:X:X:X:X:X:X:X:XD.:X:X:X:X:X:X:X:X:X:X:X:X:X:X:X:XD.!.|.XX&X:X",
":X:X:XXX#X:X:X:X:X:X:X:X:X:X:X:X:X:X:X:X:X:XM.:X:X:X:X:X:X:X:X:X:X:X:X:X:X:X:XU.:X:X:X:X:X:X:X:X:X:X:X:X:X:X:X:X:X!.:X:X:X:X:X:X:X:X:X:X:X:X:X:X:X:XV.:X:X:X:X:X",
":X:X:X|.#X:X:X:X:X:X:X:X:X:X:X:X:X:X:X:X:X:XM.:X:X:X:X:X:X:X:X:X:X:X:X:X:X:X:X!.:X:X:X:X:X:X:X:X:X:X:X:X:X:X:X:X:XR.:X:X:X:X:X:X:X:X:X:X:X:X:X:X:X:XG.:X:X:X:X:X",
":X:X:X|.#X:X:X:X:X:X:X:X:X:X:X:X:X:X:X:X:X:XD.:X:X:X:X:X:X:X:X:X:X:X:X:X:X:X:XXX:X:X:X:X:X:X:X:X:X:X:X:X:X:X:X:X:XU.:X:X:X:X:X:X:X:X:X:X:X:X:X:X:X:XR.:X:X:X:X:X",
":X:X:X(.&X:X:X:X:X:X:X:X:X:X:X:X:X:X:X:X:X:XU.:X:X:X:X:X:X:X:X:X:X:X:X:X:X:X:X|.:X:X:X:X:X:X:X:X:X:X:X:X:X:X:X:X:X!.:X:X:X:X:X:X:X:X:X:X:X:X:X:X:X:X(.:X:X:X:X:X",
"!.(.(.U.!.!.!.!.R.R.R.U.D.D.!.U.D.D.D.G.U.U.j.`.`.!.U.G.G.G.U.D.!.(.(.(.(.(.`.v.`.`.`.|.|.|.|.`.G.(.(.(.(.(.!.!.!.v.R.R.R.U.U.G.D.v.D.D.D.D.D.G.U.D.y.U.D.D.G.G.",
":X:X:X:X:X:X:X:X:X:X:X:X#X&X:X:X:X:X:X:X:X:X:X:X:X:X:X:X:X:X:X|.:X:X:X:X:X:X:X:X:X:X:X:X:X:X:X:X`.:X:X:X:X:X:X:X:X:X:X:X:X:X:X:X:XU.:X:X:X:X:X:X:X:X:X:X:X:X:X:X",
":X:X:X:X:X:X:X:X:X:X:X:X#XXX:X:X:X:X:X:X:X:X:X:X:X:X:X:X:X:X:XU.:X:X:X:X:X:X:X:X:X:X:X:X:X:X:X:X(.:X:X:X:X:X:X:X:X:X:X:X:X:X:X:X:X(.:X:X:X:X:X:X:X:X:X:X:X:X:X:X",
":X:X:X:X:X:X:X:X:X:X:X:X&X`.:X:X:X:X:X:X:X:X:X:X:X:X:X:X:X:X:XD.:X:X:X:X:X:X:X:X:X:X:X:X:X:X:X:X!.:X:X:X:X:X:X:X:X:X:X:X:X:X:X:X:X|.:X:X:X:X:X:X:X:X:X:X:X:X:X:X",
":X:X:X:X:X:X:X:X:X:X:X:X&X`.:X:X:X:X:X:X:X:X:X:X:X:X:X:X:X:X:XU.:X:X:X:X:X:X:X:X:X:X:X:X:X:X:X:X(.:X:X:X:X:X:X:X:X:X:X:X:X:X:X:X:X`.:X:X:X:X:X:X:X:X:X:X:X:X:X:X",
":X:X:X:X:X:X:X:X:X:X:X:X&X(.:X:X:X:X:X:X:X:X:X:X:X:X:X:X:X:X:X(.:X:X:X:X:X:X:X:X:X:X:X:X:X:X:X:X|.:X:X:X:X:X:X:X:X:X:X:X:X:X:X:X:X`.:X:X:X:X:X:X:X:X:X:X:X:X:X:X",
"|.XXXXXXD.XXXXXXXXXXXX|.|.!.|.|.|.`.`.`.(.(.M.R.!.!.!.!.!.!.R.M.R.U.U.U.G.G.D.d.G.G.D.D.D.D.D.D.M.G.G.U.U.U.U.U.G.G.R.R.!.!.!.!.(.D.(.(.`.`.`.`.`.`.G.(.`.|.|.XX",
":X:X:X:X`.:X:X:X:X:X:X:X:X:X:X:X:X:X:X:X:X:XXX:X:X:X:X:X:X:X:X:X:X:X:X:X:X:X:X!.:X:X:X:X:X:X:X:X:X:X:X:X:X:X:X:X&X#X:X:X:X:X:X:X:X:X:X:X:X:X:X:X:X#XR.:X:X:X:X:X",
":X:X:X:X(.:X:X:X:X:X:X:X:X:X:X:X:X:X:X:X:X:X|.:X:X:X:X:X:X:X:X:X:X:X:X:X:X:X:X!.:X:X:X:X:X:X:X:X:X:X:X:X:X:X:X:X#X#X:X:X:X:X:X:X:X:X:X:X:X:X:X:X:X`.(.:X:X:X:X:X",
":X:X:X:X(.:X:X:X:X:X:X:X:X:X:X:X:X:X:X:X:X:X|.:X:X:X:X:X:X:X:X:XR.q h | I d / 3 s M.r h y.3 r U.:X:X:X:X:X:X:X:X#X#X:X:X:X:X:X:X:X:X:X:X:X:X:X:X:XU.|.:X:X:X:X:X",
":X:X:X:X|.:X:X:X:X:X:X:X:X:X:X:X:X:X:X:X:X:X#X:X:X:X:X:X:X:X:X:X$.M 7 N F 7 L v 3 Q T 7 T r v ;.:X:X:X:X:X:X:X:X&X&X:X:X:X:X:X:X:X:X:X:X:X:X:X:X:XG.XX:X:X:X:X:X",
"&X&X&X:XU.&X&X&X&X&X&X&X&X&X&X&X&X&X&X&X&X&X`.&X&X&X&X&X&X&X&X&X| N v.Q Z 7 L @ ; XX,.@ ;.r m $.&X&X&X&X&X&X&X&XXX#X&X&X&X&X&X&X#X&X&X&X:X:X:X:X#Xv.(.#X#X&X&X&X",
"V.V.U.!.V.!.U.D.D.U.U.U.G.j.G.G.G.G.G.G.G.D.V.D.D.D.D.D.U.U.M.v.( m d b M > N z 8 Z / 3 C 8 z T v.G.G.G.G.D.D.D.D.V.V.G.U.!.!.R.D.0.G.R.(.`.`.`.`.|.XX#X&X:X:X:X",
":X:X:X:X:X:X:X:X:X:X:X:X:XXX:X:X:X:X:X:X:X:X:X:X:X:X:X:X:X:X:X&X,.r = I i & ( r ; F i ; ` > 8 5.XX:X:X:X:X:X:X:X:X:X:X:X:X:X:X:X:XD.:X:X:X:X:X:X:X:X:X:X:X:X:X:X",
":X:X:X:X:X:X:X:X:X:X:X:X:XXX:X:X:X:X:X:X:X:X:X:X:X:X:X:X:X:X#XXX&X[ =.#X` ,.V.Q ;.XX/ $.R.Q O.XX`.:X:X:X:X:X:X:X:X:X:X:X:X:X:X:X:XG.:X:X:X:X:X:X:X:X:X:X:X:X:X:X",
":X:X:X:X:X:X:X:X:X:X:X:X:X#X:X:X:X:X:X:X:X:X:X:X:X:X:X:X:X:X|.`.:X:X:X:X:X:X:X:X:X:X:X:X:X:X:X#X`.:X:X:X:X:X:X:X:X:X:X:X:X:X:X:X:XU.:X:X:X:X:X:X:X:X:X:X:X:X:X:X",
":X:X:X:X:X:X:X:X:X:X:X:X:X|.:X:X:X:X:X:X:X:X:X:X:X:X:X:X:X:X|.`.:X:X:X:X:X:X:X:X:X:X:X:X:X:X:X&X|.:X:X:X:X:X:X:X:X:X:X:X:X:X:X:X:XU.:X:X:X:X:X:X:X:X:X:X:X:X:X:X",
"`.#X&X&XR.XXXXXXXXXX|.`.`.V.`.`.(.(.(.!.R.V.U.R.R.R.!.R.R.R.G.D.U.G.G.G.R.(.U.r.V.V.M.j.d.j.v.v.M.U.R.R.U.D.j.5.=.j.M.v.j.d.d.d.p.0.d.p.p.p.p.p.p.0.R.(.D.p.0.0.",
":X:X:X:XR.:X:X:X:X:X:X:X:X:X:X:X:X:X:X:X:X|.:X:X:X:X:X:X:X:X:X:X#X#X:X:X:X:X:X#X:X:X:X:X:X:X:X:X:X:X:X:X:X:X:X:X|.:X:X:X:X:X:X:X:X:X:X:X:X:X:X:X:XXX:X:X:X:X:X:X",
":X:X:X:X(.:X:X:X:X:X:X:X:X:X:X:X:X:X:X:X:X/ & & | 5.& & 0.:Xd.r . . s V.:X( & & & & q r.V.& & & & & q ,.& & ;.p.& & ` :X:X:X:X:X:X:X:X:X:X:X:X:X:X`.:X:X:X:X:X:X",
":X:X:X:X(.:X:X:X:X:X:X:X:X:X:X:X:X:X:X:X:XQ . . N ,.. . 5.(.& . . . . > #XQ . . . . . & d.. . . . . 3 ;.. . =.y.. . ( :X:X:X:X:X:X:X:X:X:X:X:X:X:XR.:X:X:X:X:X:X",
":X:X:X:X!.:X:X:X:X:X:X:X:X:X:X:X:X:X:X:X:XQ . . r ,.. . 5.=.. . z i . . p.Q . . h 7 . . ;.v 3 . . s C ;.. . =.y.. . ( :X:X:X:X:X:X:X:X:X:X:X:X:X:X(.:X:X:X:X:X:X",
":X:X:X:X!.:X:X:X:X:X:X:X:X:X:X:X:X:X:X:X:XQ . . . =.. . 5./ . . p.| . . ;.Q . . 5.| . . y.:XL . . v.:X;.. . =.y.. . ( :X:X:X:X:X:X:X:X:X:X:X:X:X:X`.:X:X:X:X:X:X",
":X:X:X&XU.!.#X:X:X:X:X:X&X!.D.M.M.V.!.XX#XT . . . H . . ,.Q . . y.| . . $.T . . 5.( . . ;.R.F . . r.`.O.. . $.5.. . Q |.|.|.|.|.`.!.U.U.U.(.#X:X#XM.#X:X:X:X:X:X",
":X:X:X:X:X:X:X:X:X:X:X:X&X:X:X:X:X:X:X:X:XQ . . . z . . 5.Q . . p.O.. . =.Q . . 8 & . o (.:XL . . v.:X;.. . o o . . ( :X:X:X:X:XXX#X:X:X:X:X:X:X:X:X:X:X:X:X:X:X",
":X:X:X:X:X:X:X:X:X:X:X:X&X:X:X:X:X:X:X:X:XQ . . . & . . 5.Q . . d.O.. . =.Q . . . . . O.:X:XL . . v.:X;.. . . . . . ( :X:X:X:X:X!.XX:X:X:X:X:X:X:X:X:X:X:X:X:X:X",
":X:X:X:X:X:X:X:X:X:X:X:X|.:X:X:X:X:X:X:X:XQ . . > . . . 5.Q . . d.O.. . =.Q . . d & . 8 :X:XL . . v.:X;.. . s h . . ( :X:X:X:X:XU.XX:X:X:X:X:X:X:X:X:X:X:X:X:X:X",
":X:X:X:X:X:X:X:X:X:X:X:XM.&X:X:X:X:X:X:X:XQ . . m . . . 5.Q . . d.O.. . =.Q . . 0.N . . !.:XL . . v.:X;.. . =.y.. . ( :X:X:X:X:XG.XX:X:X:X:X:X:X:X:X:X:X:X:X:X:X",
":X:X:X:X:X:X&X#XXX|.(.!.| !.|.XXXX#X#X&X&XQ . . / . . . 5.Q . . d.O.. . =.Q . . 0.C . . R.:XL . . v.:X;.. . =.y.. . ( :X:X:X:X:XU.#X:X:X:X:X:X:X:X:X:X:X:X:X:X:X",
":X&X|.!.d.#X#XXX|.`.(.R.U.`.|.|.XXXX#X#X!.T . . r.. . . ;.Q . . r.[ . . | G . . ` b . . r.M.N . . ,.U.` . . [ 5.. . / &X&X&X&X&XR.(.`.(.!.R.G.D.V.M.r.v.p.y.r.0.",
":X:X:X:XM.:X:X:X:X:X:X:X:X:X:X:X:X:X:X:X|.Q . . M.7 . . 5.,.. . m s . . j.Q . . 0.C . . !.:XL . . v.:X;.. . =.y.. . ( :X:X:X:X:X:X:X:X:X:X:X:X:X:X:X(.:X:X:X:X:X",
":X:X:X:XG.:X:X:X:X:X:X:X:X:X:X:X:X:X:X:X#XT . . M.M . . 5.|.= . . . . 7 &XQ . . 0.C . . !.:XL . . v.:X;.. . =.y.. . ( :X:X:X:X:X:X:X:X:X:X:X:X:X:X:X(.:X:X:X:X:X",
":X:X:X:X!.:X:X:X:X:X:X:X:X:X:X:X:X:X:X:X&XI . . M.( . . 5.:Xj.8 . . i D.:XQ . . 0.C . . (.:XL . . v.:X;.. . =.y.. . ( :X:X:X:X:X:X:X:X:X:X:X:X:X:X:X(.:X:X:X:X:X",
":X:X:X:X|.:X:X:X:X:X:X:X:X:X:X:X:X:X:X:X&XXX:X:X:X:X:X:X:X:X:X:X(.`.:X:X:X:X#X|.:X:X:X:X:X:X:X:X:X:X:X:X:X:X:X:XD.:X:X:X:X:X:X:X:X:X:X:X:X:X:X:X:X&X|.:X:X:X:X:X",
":X:X:X:X#X:X:X:X:X:X:X:X:X:X:X:X:X:X:X:X#X`.:X:X:X:X:X:X:X:X:X:X:X:X:X:X:X:X&XXX:X:X:X:X:X:X:X:X:X:X:X:X:X:X:X:XR.:X:X:X:X:X:X:X:X:X:X:X:X:X:X:X:X#X|.:X:X:X:X:X",
":X:X:X:X:X:X&X#X|.R.D.r.`.XX!.G.V.M.M.D.D.M.V.V.M.M.M.M.M.d.V.D.G.U.R.R.R.U.V.U.!.(.(.`.`.|.|.U.XX`.`.|.XX#X#XXXV.`.`.(.(.R.U.G.V.M.D.V.M.M.v.j.d.y.r.j.p.r.y.y.",
":X:X:X:X:X:X:X:X:X:X:X!.:X:X:X:X:X:X:X:X:X:X:X:X:X:X:X:X:X`.&X:X:X:X:X:X:X:X:X:X:X:X:X:X:X:X:X(.:X:X:X:X:X:X:X:X:X:X:X:X:X:X:X:XXXXX:X:X:X:X:X:X:X:X:X:X:X:X:X:X",
":X:X:X:X:X:X:X:X:X:X:XU.:X:X:X:X:X:X:X:X:X:X:X:X:X:X:X:X:X|.#X:X:X:X:X:X:X:X:X:X:X:X:X:X:X:X:XU.:X:X:X:X:X:X:X:X:X:X:X:X:X:X:X:X&X&X:X:X:X:X:X:X:X:X:X:X:X:X:X:X",
":X:X:X:X:X:X:X:X:X:X:XU.:X:X:X:X:X:X:X:X:X:X:X:X:X:X:X:X:XXX#X:X:X:X:X:X:X:X:X:X:X:X:X:X:X:X:XR.:X:X:X:X:X:X:X:X:X:X:X:X:X:X:X:X:X&X:X:X:X:X:X:X:X:X:X:X:X:X:X:X",
":X:X:X:X:X:X:X:X:X:X:XR.:X:X:X:X:X:X:X:X:X:X:X:X:X:X:X:X:X&X&X:X:X:X:X:X:X:X:X:X:X:X:X:X:X:X:XXX:X:X:X:X:X:X:X:X:X:X:X:X:X:X:X:X&X#X:X:X:X:X:X:X:X:X:X:X:X:X:X:X",
":X:X:X:X:X:X:X:X:X#X#XU.#X&X&X&X&X:X:X:X:X:X:X:X:X:X:X:X:X&XXX:X:X:X:X:X:X:X:X:X:X:X:X:X:X:X:X`.:X:X:X:X:X:X:X:X:X:X:X:X:X:X:X:X#X#X:X:X:X:X:X:X:X:X:X:X:X:X:X:X",
"#X#X#XXX`.d.#X:X#X|.`.(.|.|.|.|.XXXXXXXXV.#X#XXX|.`.|.XX|.`.(.|.`.(.!.!.R.R.v.U.U.U.U.G.G.D.D.d.V.V.V.D.D.D.G.V.V.G.U.U.R.R.R.R.G.G.(.(.`.`.`.`.`.U.|.|.|.|.|.|.",
":X:X:X:X:XD.:X:X:X:X:X:X:X:X:X:X:X:X:X:XG.:X:X:X:X:X:X:X:X:X:X:X:X:X:X:X:X:X|.&X:X:X:X:X:X:X:X:X:X:X:X:X:X:X:X&X:X:X:X:X:X:X:X:X:X:X:X:X:X:X:X:X:X(.:X:X:X:X:X:X",
":X:X:X:X:XU.:X:X:X:X:X:X:X:X:X:X:X:X:X:XD.:X:X:X:X:X:X:X:X:X:X:X:X:X:X:X:X:X(.#X:X:X:X:X:X:X:X:X:X:X:X:X:X:X:XXX&X:X:X:X:X:X:X:X:X:X:X:X:X:X:X:X:X!.:X:X:X:X:X:X",
":X:X:X:X:X(.:X:X:X:X:X:X:X:X:X:X:X:X:X:XD.:X:X:X:X:X:X:X:X:X:X:X:X:X:X:X:X:X|.XX:X:X:X:X:X:X:X:X:X:X:X:X:X:X:X`.&X:X:X:X:X:X:X:X:X:X:X:X:X:X:X:X:XG.:X:X:X:X:X:X",
":X:X:X:X:X|.:X:X:X:X:X:X:X:X:X:X:X:X:X:XU.:X:X:X:X:X:X:X:X:X:X:X:X:X:X:X:X:X&XXX:X:X:X:X:X:X:X:X:X:X:X:X:X:X:X|.&X:X:X:X:X:X:X:X:X:X:X:X:X:X:X:X:XG.:X:X:X:X:X:X",
"&X#XXXXXXX`.|.|.|.|.XXXX|.|.|.|.|.XXXXXXD.XXXXXX#X#X#X#X#X#X#X#X#X#X#X&X:X:XXX|.:X:X:X:X:X:X:X:X:X:X:X:X:X:X:X`.&X:X:X:X:X:X:X:X:X:X:X:X:X:X:X:X:X!.:X:X:X:X:X:X",
"#XXX`.`.(.(.(.!.!.(.`.R.D.(.(.!.!.(.(.(.!.(.(.(.(.(.(.`.`.!.D.(.(.(.`.|.XX#X(.(.|.|.|.|.|.|.|.V.XX|.|.|.|.|.`.!.(.`.`.`.(.(.(.(.M.!.!.!.!.R.R.R.U.D.U.U.U.U.U.G.",
":X:X:X:X:X:X:X:X:X:X:X&XXX:X:X:X:X:X:X:X:X:X:X:X:X:X:X:X:X#X`.:X:X:X:X:X:X:X:X:X:X:X:X:X:X:X:X!.:X:X:X:X:X:X:X:X:X:X:X:X:X:X:X:X|.:X:X:X:X:X:X:X:X:X:X:X:X:X:X:X",
":X:X:X:X:X:X:X:X:X:X:X&XXX:X:X:X:X:X:X:X:X:X:X:X:X:X:X:X:X#X`.:X:X:X:X:X:X:X:X:X:X:X:X:X:X:X:X`.:X:X:X:X:X:X:X:X:X:X:X:X:X:X:X:XU.:X:X:X:X:X:X:X:X:X:X:X:X:X:X:X",
":X:X:X:X:X:X:X:X:X:X:X&XXX:X:X:X:X:X:X:X:X:X:X:X:X:X:X:X:X&X|.:X:X:X:X:X:X:X:X:X:X:X:X:X:X:X:X(.:X:X:X:X:X:X:X:X:X:X:X:X:X:X:X:XG.:X:X:X:X:X:X:X:X:X:X:X:X:X:X:X",
":X:X:X:X:X:X:X:X:X:X:X:X&X:X:X:X:X:X:X:X:X:X:X:X:X:X:X:X:X&X|.:X:X:X:X:X:X:X:X:X:X:X:X:X:X:X:X`.:X:X:X:X:X:X:X:X:X:X:X:X:X:X:X:XR.:X:X:X:X:X:X:X:X:X:X:X:X:X:X:X",
"&X&X#XXXXX|.|.|.XX#X&XXXR.&X#X#X#X&X&X#X#X#X#X#X#X#X#X#X#X|.U.#X#X#X#X&X&X&X|.#X&X&X#X#XXX#X#XV.&X&X&X#X#X#X#X#X#X&X&X&X&X&X&X&XG.#X#X&X&X&X#XXX|.#X&X&X&X&X&X#X",
"#XXX|.(.!.0.U.R.(.`.XXXX`.XX|.|.|.XXXXXX!.G.XXXXXXXXXXXXXX|.|.|.|.|.|.XXXXXXV.|.#XXX|.`.`.`.|.|.XXXXXXXXXXXXXX!.|.XXXXXXXXXXXXXXXX|.XXXX#X#X#XXXR.(.#X#X&X#X#XXX",
":X:X:X:X:XD.:X:X:X:X:X:X:X:X:X:X:X:X:X:X&X#X:X:X:X:X:X:X:X:X:X:X:X:X:X:X:X:X#X:X:X:X:X:X:X:X:X:X:X:X:X:X:X:X:XXX&X:X:X:X:X:X:X:X:X:X:X:X:X:X:X:XXXXX:X:X:X:X:X:X",
":X:X:X:X:XR.:X:X:X:X:X:X:X:X:X:X:X:X:X:X&XXX:X:X:X:X:X:X:X:X:X:X:X:X:X:X:X:XR.:X:X:X:X:X:X:X:X:X:X:X:X:X:X:X:XXX:X:X:X:X:X:X:X:X:X:X:X:X:X:X:X:X|.XX:X:X:X:X:X:X",
":X:X:X:X:X`.:X:X:X:X:X:X:X:X:X:X:X:X:X:X#X(.:X:X:X:X:X:X:X:X:X:X:X:X:X:X:X:XV.:X:X:X:X:X:X:X:X:X:X:X:X:X:X:X:XXX:X:X:X:X:X:X:X:X:X:X:X:X:X:X:X:X`.#X:X:X:X:X:X:X",
":X:X:X:X:XXX:X:X:X:X:X:X:X:X:X:X:X:X:X:XXX!.:X:X:X:X:X:X:X:X:X:X:X:X:X:X:X:XD.:X:X:X:X:X:X:X:X:X:X:X:X:X:X:X:X#X:X:X:X:X:X:X:X:X:X:X:X:X:X:X:X:X(.#X:X:X:X:X:X:X",
"`.`.`.|.#X&XXX`.R.G.V.M.j.M.M.M.M.M.M.M.V.j.`.(.U.D.M.M.V.p.G.G.U.R.!.!.R.U.j.!.R.U.U.R.!.!.G.v.R.U.U.U.U.U.R.G.(.(.(.(.!.!.U.D.M.(.`.`.(.(.!.U.j.U.(.!.!.!.!.!.",
":X:X:X:X:X:X:X:X:X:X:X&XXX:X:X:X:X:X:X:X:X:X:X:X:X:X:X:X:X`.:X:X:X:X:X:X:X:X:X:X:X:X:X:X:X:X:XXX:X:X:X:X:X:X:X:X:X:X:X:X:X:X:X:XU.:X:X:X:X:X:X:X:X:X:X:X:X:X:X:X",
":X:X:X:X:X:X:X:X:X:X:X:X#X:X:X:X:X:X:X:X:X:X:X:X:X:X:X:X:X(.:X:X:X:X:X:X:X:X:X:X:X:X:X:X:X:X:XR.:X:X:X:X:X:X:X:X:X:X:X:X:X:X:X:Xj.:X:X:X:X:X:X:X:X:X:X:X:X:X:X:X",
":X:X:X:X:X:X:X:X:X:X:X:XXX:X:X:X:X:X:X:X:X:X:X:X:X:X:X:X:X!.:X:X:X:X:X:X:X:X:X:X:X:X:X:X:X:X#X!.:X:X:X:X:X:X:X:X:X:X:X:X:X:X:X:XV.:X:X:X:X:X:X:X:X:X:X:X:X:X:X:X",
":X:X:X:X:X:X:X:X:X:X:X:X`.:X:X:X:X:X:X:X:X:X:X:X:X:X:X:X:X|.:X:X:X:X:X:X:X:X:X:X:X:X:X:X:X:X#XXX:X:X:X:X:X:X:X:X:X:X:X:X:X:X:X:X(.:X:X:X:X:X:X:X:X:X:X:X:X:X:X:X",
":X:X:X:X:X:X:X:X:X:X:X:X!.:X:X:X:X:X:X:X:X:X:X:X:X:X:X:X:XXX:X:X:X:X:X:X:X:X:X:X:X:X:X:X:X:X#XXX:X:X:X:X:X:X:X:X:X:X:X:X:X:X:X#XXX:X:X:X:X:X:X:X:X:X:X:X:X:X:X:X",
"&X&X#X#XXXM.U.G.V.M.j.p.0.p.j.M.D.G.U.R.d.`.!.G.V.M.M.D.G.v.U.U.U.U.U.U.U.d.!.(.U.D.V.D.U.G.D.v.`.!.G.V.M.M.j.v.!.D.V.V.G.!.!.j.D.U.U.U.U.U.U.D.V.D.V.V.D.U.(.`.",
":X:X:X:X:XD.:X:X:X:X:X:X:X:X:X:X:X:X:X:XG.:X:X:X:X:X:X:X:X:X:X:X:X:X:X:X:X|.:X:X:X:X:X:X:X:X:X:X:X:X:X:X:X:X&X&X:X:X:X:X:X:X:X:X:X:X:X:X:X:X:X:X&X:X:X:X:X:X:X:X"
};
